<?xml version="1.0" standalone="no"?>
<!DOCTYPE svg PUBLIC "-//W3C//DTD SVG 20010904//EN"
 "http://www.w3.org/TR/2001/REC-SVG-20010904/DTD/svg10.dtd">
<svg version="1.0" xmlns="http://www.w3.org/2000/svg"
 width="599.000000pt" height="599.000000pt" viewBox="0 0 599.000000 599.000000"
 preserveAspectRatio="xMidYMid meet">
<metadata>
Created by potrace 1.11, written by Peter Selinger 2001-2013
</metadata>
<g transform="translate(0.000000,599.000000) scale(0.100000,-0.100000)"
fill="#000000" stroke="none">
<path d="M1790 5732 c-365 -165 -619 -341 -906 -627 -186 -186 -294 -318 -419
-515 -74 -118 -185 -331 -238 -461 -261 -632 -293 -1350 -92 -2012 152 -501
457 -985 839 -1330 444 -401 957 -650 1538 -746 907 -150 1841 131 2522 761
l68 63 -32 129 c-48 195 -113 373 -205 561 -213 436 -525 785 -950 1064 -234
153 -564 308 -805 376 -52 15 -98 29 -103 32 -6 3 87 73 98 73 1 0 36 20 77
45 42 25 80 45 86 45 6 0 12 3 14 8 3 8 88 52 100 52 4 0 35 13 70 30 150 70
383 139 603 177 158 27 566 25 740 -5 221 -38 441 -101 645 -184 119 -48 380
-177 440 -217 30 -20 67 -42 83 -49 l27 -12 0 43 c0 89 -21 317 -41 437 -80
488 -266 925 -565 1323 -104 138 -131 167 -138 146 -3 -8 -51 -178 -106 -379
-56 -201 -104 -367 -106 -369 -2 -2 -25 12 -51 32 -393 290 -802 477 -1263
576 -74 16 -177 35 -229 41 -103 13 -111 10 -111 -41 0 -30 -19 -115 -135
-609 -47 -201 -126 -540 -176 -755 -50 -214 -92 -391 -94 -394 -7 -6 -58 41
-335 303 -146 138 -421 398 -611 578 -412 389 -451 432 -524 592 -64 138 -80
220 -79 411 0 156 2 177 28 260 72 238 206 423 396 551 36 24 60 44 55 44 -6
-1 -57 -22 -115 -48z"/>
<path d="M2266 5475 c-208 -53 -377 -229 -421 -440 -27 -130 -11 -248 51 -374
70 -141 219 -259 375 -296 300 -70 606 114 683 412 20 78 20 208 0 287 -46
178 -190 334 -367 396 -81 29 -237 36 -321 15z m371 -241 c90 -55 129 -182 84
-279 -24 -53 -90 -111 -143 -125 -94 -26 -199 17 -252 103 -72 116 -15 274
116 324 55 21 140 11 195 -23z"/>
</g>
</svg>
